<svg xmlns="http://www.w3.org/2000/svg" width="70.282" height="81" viewBox="0 0 70.282 81">
    <defs>
        <style>
            .prefix__cls-2{fill:#fff}.prefix__cls-2,.prefix__cls-5{stroke-linecap:round}.prefix__cls-2{stroke-linejoin:round;stroke:#003057}.prefix__cls-5,.prefix__cls-7{fill:none}.prefix__cls-5{stroke:#248ed8}.prefix__cls-6{stroke:none}
        </style>
    </defs>
    <g id="prefix__polygon-partner-portal" transform="translate(.5 .5)">
        <path id="prefix__polygon-form" d="M146.957 65.783v-40l-34.641-20-34.641 20v40l34.641 20z" transform="translate(-77.675 -5.783)" style="stroke-linejoin:round;stroke-linecap:round;stroke:#eff1f2;fill:#fff"/>
        <g id="prefix__icon-partner-portal" transform="translate(14 22)">
            <path id="prefix__trace" d="M2.385.007l-2.3 20.8s-.567 2.272 1.281 2.626a1.671 1.671 0 0 0 2.146-1.239s-.559 3.365 2.044 3.541 2.409-3.273 2.409-3.273S7 26.578 9.649 26.82 12.015 22 12.015 22s-.561 4.371 2.023 4.815 2.352-.75 3.053-6.576a111.6 111.6 0 0 1 2.581-12.88L15.323 0z" class="prefix__cls-2" transform="rotate(-60 20.455 7.862)"/>
            <g id="prefix__trace-2" class="prefix__cls-2" data-name="trace" transform="rotate(45 -16.685 27.658)">
                <rect width="5.002" height="10.003" class="prefix__cls-6" rx="2"/>
                <rect width="4.002" height="9.003" x=".5" y=".5" class="prefix__cls-7" rx="1.5"/>
            </g>
            <g id="prefix__trace-3" class="prefix__cls-2" data-name="trace" transform="rotate(45 -17.343 32.662)">
                <rect width="5.002" height="10.003" class="prefix__cls-6" rx="2"/>
                <rect width="4.002" height="9.003" x=".5" y=".5" class="prefix__cls-7" rx="1.5"/>
            </g>
            <g id="prefix__trace-4" class="prefix__cls-2" data-name="trace" transform="rotate(45 -20.772 36.982)">
                <rect width="5.002" height="6.252" class="prefix__cls-6" rx="2"/>
                <rect width="4.002" height="5.252" x=".5" y=".5" class="prefix__cls-7" rx="1.5"/>
            </g>
            <g id="prefix__trace-5" data-name="trace" transform="translate(10.245)">
                <path id="prefix__Tracé_1099" d="M8.859 24.439l-1.946-1.072L8.565 9.24l.049-.409-.359-.206C8.042 8.5 3.009 5.618 1.693 4.936.885 4.515-.472 3.326.165 1.824a1.25 1.25 0 0 1 1.315-.772 2.885 2.885 0 0 1 .747.1v-.009c.267.112 1.343.587 5.633 2.557a17 17 0 0 1 8.449 9.347L8.858 24.439zM2.35 1.146a.584.584 0 0 1-.115-.011L2.695 0a.628.628 0 0 1 .263.678l-.606.469z" data-name="Tracé 1099" transform="rotate(-60 12.57 7.257)" style="fill:#fff"/>
                <path id="prefix__Tracé_1100" d="M9.276 23.185l6.964-10.641a16.291 16.291 0 0 0-8.014-8.7c-3.86-1.772-5.1-2.326-5.5-2.5l-.062-.019A2.2 2.2 0 0 0 2.1 1.25c-.572 0-.672.238-.739.393C.9 2.723 1.975 3.627 2.6 3.954c1.327.688 6.371 3.581 6.585 3.7a1.249 1.249 0 0 1 .62 1.229L8.205 22.6l1.07.589m.413 1.654l-2.822-1.558 1.7-14.542S3.348 5.748 2.028 5.064-.506 2.848.215 1.154A1.9 1.9 0 0 1 2.1 0a3.427 3.427 0 0 1 .934.131s-.07-.038-.06-.038c.029 0 .738.3 5.775 2.614a17.593 17.593 0 0 1 8.879 10L9.688 24.84z" data-name="Tracé 1100" transform="rotate(-60 13.25 7.583)" style="fill:#003057"/>
            </g>
            <g id="prefix__trace-6" class="prefix__cls-2" data-name="trace" transform="rotate(45 -15.936 22.386)">
                <rect width="5.002" height="8.753" class="prefix__cls-6" rx="2"/>
                <rect width="4.002" height="7.753" x=".5" y=".5" class="prefix__cls-7" rx="1.5"/>
            </g>
            <g id="prefix__trace-7" data-name="trace" transform="translate(0 5.102)">
                <path id="prefix__Tracé_1102" d="M.625 0H14.38a.625.625 0 0 1 .625.625v3.752a1.876 1.876 0 0 1-1.875 1.875H1.876A1.876 1.876 0 0 1 0 4.377V.625A.625.625 0 0 1 .625 0z" class="prefix__cls-2" data-name="Tracé 1102" transform="rotate(-60 11.254 6.497)"/>
            </g>
            <g id="prefix__trace-8" data-name="trace" transform="translate(29.116 3.798)">
                <path id="prefix__Tracé_1104" d="M.625 0H14.38a.625.625 0 0 1 .625.625v3.752a1.876 1.876 0 0 1-1.875 1.875H1.876A1.876 1.876 0 0 1 0 4.377V.625A.625.625 0 0 1 .625 0z" class="prefix__cls-2" data-name="Tracé 1104" transform="rotate(64.02 2.81 4.495)"/>
            </g>
            <path id="prefix__trace-9" d="M0 8.753L5 0" class="prefix__cls-5" data-name="trace" transform="rotate(123.99 17.311 16.885)"/>
            <path id="prefix__trace-10" d="M0 8.753L5 0" class="prefix__cls-5" data-name="trace" transform="translate(3.283 8.351)"/>
        </g>
    </g>
</svg>
