<svg xmlns="http://www.w3.org/2000/svg" id="prefix__placeholder-insight" width="125" height="125" viewBox="0 0 125 125">
    <defs>
        <style>
            .prefix__cls-1{fill:#248ed8}
        </style>
    </defs>
    <path id="prefix__trace" d="M340.3 76.417h61v57.565l2-2V99.417h11v28.973l.522-.522 1.478-.138V98.676a1.26 1.26 0 0 0-1.26-1.259H403.3v-22a1 1 0 0 0-1-1h-63a1 1 0 0 0-1 1V127.4c.677.18 1.342.39 2 .618z" class="prefix__cls-1" transform="translate(-305.303 -63.417)"/>
    <path id="prefix__trace-2" d="M385.323 157.417h-25.045c-.022.671-.058 1.339-.123 2h23.168z" class="prefix__cls-1" data-name="trace" transform="translate(-305.303 -63.417)"/>
    <path id="prefix__trace-3" d="M396.3 94.417h-51v25h51zm-2 23h-47v-21h47z" class="prefix__cls-1" data-name="trace" transform="translate(-305.303 -63.417)"/>
    <path id="prefix__trace-4" d="M0 0H26V4H0z" class="prefix__cls-1" data-name="trace" transform="translate(52.5 20.5)"/>
    <path id="prefix__trace-5" d="M0 0H23.799V2H0z" class="prefix__cls-1" data-name="trace" transform="translate(40 59.5)"/>
    <path id="prefix__trace-6" d="M0 0H23.799V2H0z" class="prefix__cls-1" data-name="trace" transform="translate(40 64.5)"/>
    <path id="prefix__trace-7" d="M369.1 134.917v-2h-19.971a29.442 29.442 0 0 1 2.238 2z" class="prefix__cls-1" data-name="trace" transform="translate(-305.303 -63.417)"/>
    <path id="prefix__trace-8" d="M369.1 137.917h-15.083q.748.969 1.42 2H369.1z" class="prefix__cls-1" data-name="trace" transform="translate(-305.303 -63.417)"/>
    <path id="prefix__trace-9" d="M369.1 142.917h-11.955c.325.654.63 1.319.908 2H369.1z" class="prefix__cls-1" data-name="trace" transform="translate(-305.303 -63.417)"/>
    <path id="prefix__trace-10" d="M369.1 147.917h-10.006q.287.985.506 2h9.5z" class="prefix__cls-1" data-name="trace" transform="translate(-305.303 -63.417)"/>
    <path id="prefix__trace-11" d="M0 0H23.799V2H0z" class="prefix__cls-1" data-name="trace" transform="translate(67 59.5)"/>
    <path id="prefix__trace-12" d="M0 0H23.799V2H0z" class="prefix__cls-1" data-name="trace" transform="translate(67 64.5)"/>
    <path id="prefix__trace-13" d="M0 0H23.799V2H0z" class="prefix__cls-1" data-name="trace" transform="translate(67 69.5)"/>
    <path id="prefix__trace-14" d="M396.1 139.182v-1.266h-23.8v2h23.064z" class="prefix__cls-1" data-name="trace" transform="translate(-305.303 -63.417)"/>
    <path id="prefix__trace-15" d="M372.3 142.917v2h18.489l1.654-2z" class="prefix__cls-1" data-name="trace" transform="translate(-305.303 -63.417)"/>
    <path id="prefix__trace-16" d="M372.3 149.917h18.691l-.189-2H372.3z" class="prefix__cls-1" data-name="trace" transform="translate(-305.303 -63.417)"/>
    <path id="prefix__trace-17" d="M352.775 147.917a24.048 24.048 0 0 0-1.352-3q-.554-1.032-1.2-2a24.059 24.059 0 0 0-2.377-3 23.722 23.722 0 0 0-2.087-2 23.484 23.484 0 0 0-5.454-3.444q-.978-.444-2-.8a22.953 22.953 0 0 0-7.5-1.26c-12.958 0-23.5 10.766-23.5 24s10.542 24 23.5 24a23.709 23.709 0 0 0 23.31-21c.08-.66.138-1.326.165-2 .013-.333.025-.665.025-1a24.389 24.389 0 0 0-.883-6.5q-.284-1.013-.647-1.996zm-.5 9.5c-.03.675-.092 1.341-.18 2a21.7 21.7 0 0 1-21.295 19c-11.855 0-21.5-9.87-21.5-22s9.645-22 21.5-22a20.96 20.96 0 0 1 7.5 1.383 21.172 21.172 0 0 1 2 .888 22.052 22.052 0 0 1 8.819 8.229 22.036 22.036 0 0 1 1.51 3q.4.976.712 2a22.374 22.374 0 0 1 .959 6.5c0 .335-.007.668-.022 1z" class="prefix__cls-1" data-name="trace" transform="translate(-305.303 -63.417)"/>
    <path id="prefix__trace-18" d="M340.3 141.524a5.727 5.727 0 0 0-2.822-.837 5.257 5.257 0 0 0-5.248 5.25 5.157 5.157 0 0 0 .2 1.363l-8.723 4.932a5.217 5.217 0 0 0-3.876-1.741 5.253 5.253 0 0 0-5.248 5.247 5.254 5.254 0 0 0 5.249 5.248 5.221 5.221 0 0 0 4.128-2.049l8.59 4.857a5.176 5.176 0 0 0-.322 1.747 5.258 5.258 0 0 0 5.248 5.248 5.259 5.259 0 0 0 5.25-5.248 5.259 5.259 0 0 0-5.25-5.249 5.221 5.221 0 0 0-3.907 1.781l-8.708-4.924a5.14 5.14 0 0 0 .218-1.41 5.19 5.19 0 0 0-.336-1.793l8.573-4.847a5.24 5.24 0 0 0 9.411-3.161 5.241 5.241 0 0 0-2.427-4.414zm-17.22 14.215a3.235 3.235 0 0 1-.253 1.254 3.274 3.274 0 0 1-1.741 1.741 3.235 3.235 0 0 1-2.506 0 3.265 3.265 0 0 1-1.743-1.743 3.23 3.23 0 0 1-.253-1.253 3.228 3.228 0 0 1 .252-1.252 3.267 3.267 0 0 1 1.744-1.743 3.224 3.224 0 0 1 1.252-.252 3.221 3.221 0 0 1 1.252.252 3.268 3.268 0 0 1 1.743 1.743 3.228 3.228 0 0 1 .252 1.252zm11.4 8.55a3.248 3.248 0 0 1 5.993 0 3.224 3.224 0 0 1 0 2.506 3.249 3.249 0 0 1-5.992 0 3.232 3.232 0 0 1 0-2.507zm5.993-17.1a3.181 3.181 0 0 1-.175.326 3.258 3.258 0 0 1-1.569 1.417 4.071 4.071 0 0 1-1.253.253 3.248 3.248 0 0 1-1.253-6.245 3.1 3.1 0 0 1 2.075-.135 3.314 3.314 0 0 1 .431.134 3.268 3.268 0 0 1 1.569 1.417 3.123 3.123 0 0 1 .175.328 3.227 3.227 0 0 1 0 2.5z" class="prefix__cls-1" data-name="trace" transform="translate(-305.303 -63.417)"/>
    <path id="prefix__trace-19" d="M427.358 134.933a1.01 1.01 0 0 0-.153-.1l-2.943-2.943a1 1 0 0 0-.1-.152 1.027 1.027 0 0 0-.733-.3h-.058a1.027 1.027 0 0 0-.733.3 1 1 0 0 0-.1.152l-2.866 2.866-.735-.735a1.086 1.086 0 0 0-.1-.152 1.029 1.029 0 0 0-.733-.3h-.059a1.025 1.025 0 0 0-.732.3 1 1 0 0 0-.1.152l-.906.906-1.777 1.773c-.069-.115-.148-.223-.227-.331a4.194 4.194 0 0 0-3.391-1.738 4.237 4.237 0 0 0-3.081 1.33c-.019.016-.042.022-.06.04l-4.468 4.468-2 2-4.239 4.238a1.041 1.041 0 0 0 1.472 1.472l2.767-2.767 2-2 2.517-2.518 3.463-3.463a2.179 2.179 0 0 1 3.713.8l-9.693 9.692-2 2-7.494 7.494-2 2-8.393 8.392a1.052 1.052 0 0 0-.513.557l-4.1 10.441a1.185 1.185 0 0 0-.075.193l-.006.014v.024a1.171 1.171 0 0 0-.048.306 1.076 1.076 0 0 0 .043.3c.007.022 0 .043.01.065s.01.013.014.022a.875.875 0 0 0 .362.468 1.018 1.018 0 0 0 .256.15c.008 0 .014.011.022.014s.043 0 .064.009a1.022 1.022 0 0 0 .279.044h.03a1.125 1.125 0 0 0 .3-.048h.026l.013-.005a1.155 1.155 0 0 0 .193-.076l10.441-4.1a1.054 1.054 0 0 0 .557-.512l18.062-18.063 5.155-5.156 10.573-10.573a.964.964 0 0 0 .153-.1.977.977 0 0 0-.153-1.624l-.735-.735 2.866-2.866a1.1 1.1 0 0 0 .153-.1 1.123 1.123 0 0 0 0-1.523zm-45.651 42.452l2.665-6.794 4.128 4.128zm34.4-29.478l-.306.306-2.771 2.771-5.144 5.144-2.785 2.785-.306.306-14.425 14.425-4.921-4.921 9.306-9.306 2-2 4.55-4.55 2-2 11-11 2-2 1.767-1.767 4.921 4.921zm6.759-9.955l-1.725-1.725 2.258-2.258 1.725 1.725z" class="prefix__cls-1" data-name="trace" transform="translate(-305.303 -63.417)"/>
    <path id="prefix__box" d="M0 0H125V125H0z" style="fill:#fff;opacity:0"/>
</svg>
